<svg width="375" height="176" viewBox="0 0 375 176" fill="none" xmlns="http://www.w3.org/2000/svg">
<path opacity="0.07" d="M400.529 89.1798C401.068 88.4879 400.257 88.6011 399.325 88.2678C398.541 87.944 397.732 87.6832 396.906 87.488C395.361 87.1979 393.763 87.4188 392.357 88.1169C391.191 88.7612 390.105 89.5379 389.12 90.4313C388.968 90.576 388.809 90.708 388.645 90.8401C388.645 90.7143 388.645 90.62 388.645 90.6074C389.227 88.0288 386.446 85.576 383.988 87.054C381.878 88.345 379.84 89.7474 377.881 91.2552C377.634 87.4502 376.386 84.1358 371.92 86.0917C370.171 86.9292 368.538 87.986 367.061 89.2363C367.915 87.5317 368.17 85.5919 367.783 83.727C367.378 81.7018 364.787 80.8905 363.127 81.8402C359.748 83.7857 356.475 85.8821 353.307 88.1294C353.345 87.9408 353.39 87.7584 353.428 87.5571C353.517 86.5076 353.473 85.4509 353.295 84.4125C353.073 82.0352 350.761 80.5006 348.531 81.7019C344.355 83.9266 340.484 86.6744 337.014 89.8778C337.125 88.5602 337.169 87.2378 337.147 85.9156C337.109 83.7144 334.416 81.7585 332.383 83.205C330.862 84.2817 329.413 85.4538 328.043 86.7144C327.739 84.3496 324.464 82.5698 322.671 84.7647L321.676 85.9785C322.006 84.4943 322.31 82.9974 322.538 81.488C322.943 78.7836 319.503 75.7019 317.242 78.4252C314.847 81.314 312.56 84.2762 310.381 87.3118C312.227 81.6389 314.066 75.9661 315.899 70.2932C317.045 66.7523 312.034 65.0291 310.108 67.8718C306.649 72.9913 303.359 78.2113 300.238 83.532C301.366 80.1274 302.498 76.7271 303.634 73.3309C304.762 69.9221 299.599 67.8341 297.844 70.9033C295.601 74.8277 293.489 78.8109 291.509 82.8528C292.617 76.4252 299.744 53.9223 300.606 47.4633C300.98 44.6897 297.685 41.803 295.31 44.4067C285.965 54.7148 272.978 82.6327 267.03 95.0224C269.47 81.9563 272.857 69.0823 277.166 56.5009C278.376 52.9601 273.302 51.2745 271.382 54.0795C266.656 60.9724 262.281 68.0967 258.275 75.4252L262.329 60.2493C263.089 57.3877 259.162 54.6959 257.033 57.1927C252.265 62.7962 248.221 68.9699 244.996 75.5699C244.438 75.3252 243.819 75.2544 243.219 75.3666C242.62 75.4789 242.069 75.7691 241.639 76.1988C238.638 79.0103 235.94 82.1234 233.587 85.488V85.3056C233.834 82.6452 229.906 81.0792 228.177 83.0792L228.069 83.2113C228.643 80.6662 229.182 78.1107 229.684 75.5447C230.35 72.1359 225.839 69.9473 223.894 73.1233L215.202 87.2993C216.077 81.161 217.23 75.0667 218.661 69.0165C219.479 65.5637 214.784 63.5134 212.871 66.5951C209.412 72.159 206.186 77.8486 203.191 83.6641C203.647 80.8025 204.072 77.9283 204.458 75.0478C204.813 72.3246 200.771 70.9284 199.054 72.8278C198.294 73.6642 197.566 74.5133 196.843 75.3749C197.168 72.7012 197.342 70.0114 197.363 67.3184C197.363 64.1738 197.211 60.7021 193.403 60.048C190.439 59.5449 187.702 61.5449 185.966 63.7524C183.356 67.0542 181.531 71.2114 179.441 74.8655L174.626 83.2993C177.249 68.0416 179.874 52.7819 182.501 37.52C183.058 34.2748 178.453 31.671 176.71 35.0987C174.088 40.2558 171.693 45.4948 169.463 50.8217C169.131 50.4745 168.723 50.2084 168.27 50.0442C167.817 49.8799 167.332 49.822 166.852 49.875C166.373 49.928 165.913 50.0905 165.507 50.3496C165.102 50.6088 164.762 50.9577 164.515 51.3689C154.816 67.2177 147.962 84.3622 142.343 101.941L148.177 48.9475C148.262 48.4403 148.185 47.9197 147.958 47.4577C147.731 46.9957 147.365 46.6152 146.91 46.369C148.064 41.963 149.702 37.6963 151.795 33.6458C152.477 33.1516 152.982 32.4527 153.234 31.6521C153.486 30.8515 153.472 29.9916 153.195 29.1994C152.428 26.6837 148.76 26.0547 147.404 28.4509C147.252 28.7151 147.113 28.9918 146.967 29.2622C146.673 29.5718 146.467 29.954 146.372 30.3692C144.175 34.5517 142.42 38.9481 141.133 43.4885C140.619 43.4901 140.118 43.6443 139.693 43.9312C139.269 44.2182 138.94 44.6247 138.751 45.0985C128.558 66.492 122.791 89.6979 121.792 113.343C119.308 123.087 117.059 132.884 115.045 142.733C114.893 140.626 114.817 138.5 114.81 136.374C115.285 136.224 115.71 135.947 116.036 135.573C116.363 135.199 116.578 134.743 116.66 134.255C123.04 105.582 122.26 75.6956 130.87 47.4633C131.769 44.5073 127.702 42.086 125.574 44.4067C124.784 45.2704 124.028 46.1488 123.306 47.0419C124.117 40.6395 124.961 34.2433 125.84 27.8535C126.271 24.7089 121.671 21.8347 120.049 25.4321C111.237 45.0293 105.168 65.5008 100.322 86.2993C103.534 59.8845 108.767 33.6396 114.012 7.52667C114.236 6.72269 114.128 5.86352 113.714 5.13815C113.299 4.41278 112.611 3.88064 111.801 3.6588C110.991 3.43695 110.126 3.54357 109.395 3.9552C108.665 4.36683 108.129 5.04975 107.905 5.85373C105.371 13.2247 102.995 20.646 100.784 28.105C100.676 27.4014 100.331 26.7552 99.8043 26.2718C99.2781 25.7885 98.6022 25.4966 97.8873 25.444C97.1723 25.3915 96.4605 25.5813 95.8682 25.9824C95.276 26.3835 94.8383 26.9721 94.6267 27.6522C85.2001 53.0984 78.9664 79.4314 73.987 106.022C76.65 71.7857 81.8397 37.7892 89.5143 4.30659C90.4139 0.375817 84.5223 -1.27825 83.4073 2.63365C81.8489 8.08431 80.3707 13.5643 78.9727 19.0737C79.0424 18.7466 79.1121 18.4448 79.1755 18.0926C79.999 14.0737 74.5255 12.665 73.0684 16.4196C71.6114 20.1743 70.205 24.0044 68.8683 27.822C68.1312 27.7407 67.3878 27.904 66.7541 28.2862C66.1203 28.6685 65.6319 29.2483 65.365 29.9352C56.5124 52.0677 49.0481 74.7229 43.0148 97.7708C45.8086 69.4693 50.7563 41.325 56.7936 13.4951C57.6425 9.56437 51.7635 7.89144 50.6802 11.8222C42.611 41.124 36.2129 70.8543 31.5166 100.871C32.5239 92.9973 33.9239 85.1483 35.3176 77.3371C38.1895 60.9097 41.5197 44.5577 45.3081 28.2811C46.0746 24.9856 41.0952 22.4762 39.5178 25.8598C33.605 38.5472 28.3258 51.48 23.6801 64.658L26.6576 44.7904C27.2467 40.891 21.6719 39.13 20.5442 43.1174L11.4027 75.6894C9.71331 78.3057 8.12322 80.9744 6.63236 83.6955L7.37356 70.0479C7.53827 67.0479 2.78696 65.6455 1.47559 68.463C-3.57759 79.2749 -5.88329 91.1519 -5.23959 103.054C-5.01152 107.117 1.44393 107.104 1.0955 102.941C1.39701 103.053 1.71233 103.125 2.03308 103.154C2.52089 103.84 2.74262 104.161 3.23042 104.853C2.10911 108.846 7.86138 110.186 9.33746 106.519C10.3046 104.117 11.2021 101.693 12.0299 99.2488C11.5146 102.632 11.0036 106.012 10.4968 109.387C9.90125 113.28 15.6535 115.098 16.6038 111.06C20.6924 93.6619 25.8719 76.5344 32.1121 59.7776C30.8451 66.2555 29.6625 72.7544 28.5644 79.2742C27.1644 87.5131 25.5743 95.8212 24.8141 104.154C24.1806 111.224 24.7127 118.563 28.7862 124.62C30.6487 127.381 34.2977 126.066 34.6905 123.028C34.7475 122.569 34.8108 122.11 34.8742 121.651C34.6166 126.628 34.4307 131.607 34.3167 136.588C34.2407 140.053 39.8599 140.99 40.5378 137.424C41.9653 129.944 43.5406 122.502 45.2637 115.098C43.9967 123.664 42.9409 132.259 42.0962 140.883C41.7604 144.387 47.6774 145.211 48.3172 141.72C52.4287 119.267 56.5529 96.7331 61.9377 74.5196C57.0533 103.708 53.7021 133.116 54.2976 162.776C54.3799 166.946 60.1195 166.676 60.6327 162.776C62.6472 147.456 64.6744 132.123 66.8854 116.815C66.0407 130.181 65.5888 143.561 65.5297 156.953C65.5297 160.38 71.1932 161.355 71.7571 157.789C74.7916 138.292 77.8641 118.701 81.7095 99.2991C77.9085 123.45 74.6733 147.68 72.0041 171.99C71.6177 175.481 77.7057 176.33 78.2252 172.827C83.2933 139.802 88.3613 106.708 95.5643 74.0856C92.7579 93.8275 89.7932 125.94 89.7172 145.909C89.7172 149.349 95.2731 150.311 95.9383 146.745L97.0215 140.883C97.1891 140.723 97.3398 140.546 97.4713 140.355C104.237 130.613 108.71 107.054 111.51 95.664C110.414 106.727 109.229 117.821 108.659 128.921C108.114 139.456 108.57 150.129 112.042 160.185C112.961 162.852 117.566 163.487 118.149 160.185C120.582 146.466 123.468 132.84 126.809 119.305C126.619 121.192 126.442 123.079 126.29 124.965C125.947 129.022 132.206 128.934 132.625 124.965C133.562 116.047 134.81 107.177 136.369 98.3557L131.934 138.563C131.535 142.135 137.256 142.745 138.155 139.399C143.698 118.771 149.337 97.9469 157.794 78.312C154.449 91.9722 151.106 105.632 147.765 119.293C146.803 123.217 152.834 124.884 153.872 120.959C159.2 100.903 164.585 80.7082 172.029 61.3436C169.837 74.0919 161.893 104.444 159.72 117.186C159.15 120.513 163.622 122.921 165.51 119.613C169.14 113.249 178.503 89.2804 182.133 82.9157L187.423 73.6391C187.784 73.0101 188.139 72.3812 188.494 71.7523C186.802 76.4441 185.047 81.1296 183.552 85.8842C182.013 90.7772 177.034 106.01 174.531 110.582C172.574 114.129 178.041 117.311 179.998 113.727C180.163 113.437 180.315 113.142 180.461 112.846C181.133 113.118 181.882 113.132 182.564 112.887C183.246 112.642 183.813 112.155 184.154 111.519C185.618 108.689 191.503 95.8904 192.624 92.9156C193.769 90.7143 195.023 88.5739 196.387 86.4942C194.918 94.9847 193.08 103.404 190.876 111.752C189.83 115.72 195.602 117.179 196.983 113.425C200.413 104.086 204.434 94.972 209.019 86.1357C208.323 91.0162 207.793 95.9197 207.429 100.846C207.195 104.079 211.788 104.953 213.334 102.431L219.13 92.9344C218.214 96.3641 217.23 99.7771 216.178 103.173C214.962 107.098 220.879 108.569 222.285 104.84C223.363 102.02 224.66 99.2861 226.162 96.6639L225.681 101.821C225.332 105.5 230.837 105.865 231.902 102.658C233.791 96.9365 236.663 91.5829 240.391 86.8338C238.54 92.498 237.267 98.3322 236.59 104.249C236.191 107.733 241.075 109.041 242.494 105.834C245.283 99.6118 246.887 92.9312 247.226 86.1295C248.386 82.9398 249.748 79.8267 251.306 76.8088L242.184 110.972C241.126 114.934 246.929 116.406 248.291 112.645C252.711 100.445 258.1 88.6138 264.407 77.2617C261.164 90.3055 253.061 116.752 251.737 130.148C251.344 134.009 256.71 133.921 257.958 130.978C260.251 125.588 268.373 106.972 270.844 101.614C269.729 104.903 266.263 119.689 265.357 123.047C264.407 126.576 269.196 128.406 271.148 125.475L280.581 103.544C280.84 103.148 281.113 102.702 281.392 102.224C280.192 107.871 278.908 113.498 277.54 119.104C277.421 119.557 277.407 120.031 277.499 120.49C277.591 120.949 277.786 121.382 278.07 121.755C278.354 122.129 278.719 122.434 279.139 122.648C279.558 122.862 280.021 122.979 280.492 122.991C279.453 126.135 279.447 134.506 278.408 137.632C277.141 141.506 283.153 143.078 284.515 139.305C289.513 125.469 294.556 106.815 301.619 93.9407C299.51 100.456 295.918 114.4 293.783 120.921C292.7 124.248 298.072 126.62 299.573 123.343C302.468 117.016 307.296 103.469 311.027 97.6073C310.394 98.928 309.76 100.236 309.006 101.519C307.308 104.513 311.642 108.198 313.979 105.33L317.78 100.676L316.868 103.897C315.759 107.827 321.683 109.374 322.975 105.569C324.524 101.022 327.007 96.8441 330.267 93.2992C329.826 95.7039 329.12 98.0533 328.163 100.305C326.599 103.953 331.331 106.959 333.631 103.481C337.133 98.1657 341.654 93.5843 346.934 89.9974C346.934 89.9974 346.409 91.4061 343.887 94.5319C339.016 100.576 341.556 102.57 345.04 100.658C345.583 100.861 346.173 100.91 346.743 100.799C347.312 100.688 347.84 100.421 348.265 100.029C351.278 97.4288 354.427 94.9873 357.698 92.7143L357.66 92.7898C356.568 95.3123 355.855 97.98 355.544 100.708C355.17 103.519 359.193 104.708 360.954 102.934C363.096 100.753 365.352 98.6851 367.713 96.7394C368.898 95.7646 370.108 94.8527 371.356 93.9407L371.527 93.8212C371.47 95.3118 371.419 96.8023 371.362 98.2928C371.255 101.079 374.866 102.362 376.766 100.519C378.706 98.6384 380.772 96.8901 382.949 95.2866C383.114 95.5819 383.304 95.8619 383.519 96.1231C385.458 98.4438 388.588 98.2803 391.008 96.8274C392.192 96.1231 393.104 95.0728 394.219 94.3118C395.873 93.1608 396.868 94.23 398.654 94.7143C401.638 95.5319 404.153 94.7772 406.015 92.3558C408.473 89.142 402.975 86.01 400.529 89.1798ZM103.097 102.953C106.638 85.7836 110.75 68.7335 116.331 52.155C116.01 54.8091 115.691 57.4674 115.374 60.1298C109.337 73.5321 107.354 88.7143 103.097 102.953ZM283.811 89.9848C282.913 90.514 282.082 91.1473 281.334 91.8715C282.445 89.2846 283.621 86.7332 284.863 84.2175C284.521 86.142 284.173 88.0603 283.811 89.9848Z" fill="url(#paint0_linear_1_158)"/>
<defs>
<linearGradient id="paint0_linear_1_158" x1="-234.456" y1="35.0045" x2="446.045" y2="35.0045" gradientUnits="userSpaceOnUse">
<stop stop-color="#6CE999"/>
<stop offset="0.479167" stop-color="#6CE999"/>
<stop offset="1" stop-color="#00CDFA"/>
</linearGradient>
</defs>
</svg>
